<?xml version="1.0" encoding="UTF-8"?>
<svg id="Capa_2" data-name="Capa 2" xmlns="http://www.w3.org/2000/svg" viewBox="0 0 214 168.61">
  <defs>
    <style>
      .cls-1 {
        fill: #e21e20;
      }

      .cls-2 {
        fill: #3f5ba6;
      }
    </style>
  </defs>
  <g id="Capa_1-2" data-name="Capa 1">
    <path class="cls-1" d="M97.31,123.6H18.2S94.32,73.66,82.06,0h38.48l-23.22,123.6Z"/>
    <path class="cls-2" d="M125.7,0h79.11s-76.14,49.92-63.84,123.6h-38.48L125.7,0Z"/>
    <path class="cls-2" d="M35.72,134.2l-.29-.28-2.64-2.64s-.07-.05-.09-.08c-.01-.01-.02-.03-.04-.04-.08-.08-.17-.15-.26-.22-.04-.02-.08-.04-.12-.07-.07-.04-.15-.09-.23-.13-.09-.04-.18-.06-.27-.09-.04-.01-.09-.03-.13-.04-.14-.03-.29-.05-.44-.05h-6.14c-1.15,0-2.09.94-2.09,2.09v9.8c0,.52-.42.94-.95.94h-8v-7.03c0-.95-.72-1.63-1.29-2.18l-.29-.28-2.63-2.64s-.07-.06-.1-.09c0,0,0,0-.01,0-.08-.08-.18-.16-.28-.23-.04-.03-.09-.05-.13-.08-.07-.04-.14-.08-.21-.12-.09-.04-.19-.07-.29-.1-.04,0-.08-.03-.12-.04-.14-.03-.29-.05-.44-.05H2.09c-1.15,0-2.09.94-2.09,2.09v30.1c0,.13.01.27.04.4.01.07.04.13.06.2.02.06.03.11.05.17.03.09.08.17.13.25.02.03.03.07.05.1.06.09.13.17.2.25.01.01.02.03.04.04l2.37,2.89c.59.72,1.8,1.49,2.86,1.49h6.14c1.15,0,2.09-.94,2.09-2.09v-10.51c0-.51.44-.95.95-.95h8v7.75c0,.44.14.85.37,1.19.02.03.05.05.07.08.06.08.13.16.2.23,0,0,0,.01.02.02l2.62,2.64.27.28c.58.61,1.3,1.37,2.26,1.37h6.14c1.15,0,2.09-.94,2.09-2.09v-30.1c0-.95-.72-1.63-1.29-2.17M10.32,133.42l1.32,1.31s.31.3.31.3c.46.44.94.89.94,1.34v7.03h-1.62c-.52,0-.95-.42-.95-.94v-9.04ZM22.98,153.87h-8c-1.16,0-2.09.94-2.09,2.09v10.51c0,.52-.42.95-.95.95h-6.14c-.6,0-1.51-.49-1.98-1.07l-1.24-1.5h5.64c1.16,0,2.09-.94,2.09-2.09v-10.51c0-.52.43-.94.95-.94h10.76c.53,0,.95.42.95.94v1.62ZM35.87,166.48c0,.52-.42.95-.95.95h-6.14c-.46,0-.98-.54-1.43-1.01l-.29-.3-1.26-1.26h5.4c1.16,0,2.09-.94,2.09-2.09v-29.34l1.32,1.31h0s.31.3.31.3c.46.44.94.88.94,1.34v30.1Z"/>
    <path class="cls-2" d="M54.02,134.2l-.29-.28-2.64-2.64s-.06-.05-.09-.08c-.01-.01-.03-.02-.04-.04-.08-.08-.17-.15-.26-.22-.04-.02-.08-.04-.12-.07-.07-.04-.14-.09-.23-.13-.09-.04-.18-.06-.27-.09-.04-.01-.09-.03-.13-.04-.14-.03-.29-.05-.44-.05h-6.14c-1.15,0-2.09.94-2.09,2.09v30.1c0,.6.25,1.13.65,1.51,0,0,0,0,0,0l2.62,2.64s.28.29.28.29c.58.61,1.3,1.36,2.25,1.36h6.14c1.15,0,2.09-.94,2.09-2.09v-30.1c0-.95-.72-1.63-1.29-2.18M54.17,166.48c0,.52-.42.95-.95.95h-6.14c-.46,0-.97-.53-1.42-1l-.3-.31-1.26-1.26h5.4c1.15,0,2.09-.94,2.09-2.09v-29.34l1.32,1.31.31.3c.46.44.94.89.94,1.34v30.1Z"/>
    <path class="cls-2" d="M175.52,140.15v-4.78c0-1-.56-1.56-1.1-2.1l-.16-.16-2.21-1.85c-.54-.45-1.23-.67-2.07-.67h-28.61c-1.15,0-2.09.94-2.09,2.09v5.05c0,.13.08.76.42,1.22.39.56,1,1.17,1.48,1.66l.45.46c.63.7,1.13,1.15,2.27,1.15h6.39v20.53c0,.12.02.24.03.35.08.79.36,1.54.76,1.99l2.12,2.21c.72.73,1.93,1.25,2.89,1.25h6.13c1.16,0,2.1-.94,2.1-2.09v-24.25h9.1c1.15,0,2.09-.93,2.09-2.09M150.3,141.09h-6.39c-.65,0-.86-.16-1.42-.78l-.48-.5c-.3-.3-.68-.69-.99-1.05.12.02.24.04.36.04h8.92v2.3ZM174.38,140.15c0,.52-.42.95-.95.95h-10.24v25.39c0,.52-.43.95-.96.95h-6.13c-.66,0-1.56-.4-2.07-.9l-1.59-1.67h6.09c1.16,0,2.09-.94,2.09-2.09v-23.97h9.37c1.15,0,2.1-.94,2.1-2.1v-3.93c.62.52,1.39,1.16,1.41,1.19.03.03.13.13.13.13.53.52.76.78.76,1.28v4.78Z"/>
    <path class="cls-2" d="M132.93,133.1l-.7-.69v.05s0-.02,0-.03c-.09-.11-.17-.21-.27-.3-.02-.03-.05-.05-.07-.08-.11-.11-.22-.21-.34-.31-.07-.06-.15-.11-.23-.17-.05-.04-.1-.07-.15-.11-.09-.06-.17-.11-.26-.16-.05-.03-.1-.06-.15-.08-.09-.05-.17-.09-.26-.13-.06-.02-.12-.05-.18-.07-.09-.03-.17-.07-.26-.1-.07-.02-.15-.04-.22-.07-.08-.02-.16-.04-.24-.06-.09-.02-.19-.04-.29-.05-.06,0-.13-.02-.19-.03-.16-.02-.33-.03-.5-.03h-23.75c-2.55,0-4.63,2.08-4.63,4.63v25.15c0,.17,0,.33.03.5,0,.02.01.05.01.08.02.14.04.28.07.42,0,0,0,.02,0,.03.09.39.22.75.4,1.09,1.29,2.92,5.01,6.02,8.94,6.02h20.14c2.44,0,6.91-2.58,6.91-6.78v-21.96c0-3.07-2.03-5.03-3.82-6.76M135.61,161.83c0,3.44-3.79,5.64-5.77,5.64h-20.14c-2.07,0-4.15-1.04-5.71-2.45.28.05.58.09.88.09h23.75c2.55,0,4.63-2.08,4.63-4.63v-25.15c0-.11-.01-.21-.02-.32,1.29,1.34,2.39,2.83,2.39,4.86v21.96ZM122.79,155.72c0,.52-.43.95-.95.95h-7.63v-13.23c0-.52.43-.95.95-.95h7.63v13.23ZM110.7,139.92c0-.52.42-.94.94-.94h10.19c.53,0,.95.42.95.94v1.43h-7.63c-1.15,0-2.09.94-2.09,2.09v13.23h-1.42c-.52,0-.94-.42-.94-.95v-15.8Z"/>
    <path class="cls-2" d="M96.94,166.15s-5.54-7.75-6.53-9.13c1.59-.18,2.91-.75,3.9-1.75,2.16-2.18,2.3-5.73,2.3-7.75,0-.16,0-.78,0-.78v-7.3c0-1.97-.99-3.43-5.03-7.41-.24-.25-.52-.47-.81-.66-.07-.05-.15-.1-.23-.14-.03-.01-.05-.03-.08-.05-.67-.38-1.45-.6-2.29-.6h-27.11c-.72,0-1.36.37-1.73.92-.23.33-.36.73-.36,1.17v30.1c0,.44.14.85.37,1.19,0,0,.01.02.02.02.07.1.15.2.24.29,0,0,.01.01.02.02l2.62,2.65s.28.29.28.29c.58.61,1.3,1.36,2.25,1.36h6.14c1.15,0,2.09-.94,2.09-2.09v-9.07h3.7c.09.13.5.7,1.02,1.43.39.55.78,1.1,1.14,1.61.18.25.36.5.53.75.24.33.45.64.64.9.07.1.14.2.21.29.18.26.32.46.41.58.04.06.07.09.08.11.01.02.02.03.02.03.2.28.45.54.73.77h0s2.86,3.04,2.86,3.04c.01.01.29.3.29.3.58.61,1.3,1.36,2.25,1.36h9.16c.56,0,1.01-.24,1.22-.65.25-.49.13-1.13-.32-1.77M71.87,156.27v10.21c0,.52-.43.95-.95.95h-6.14c-.46,0-.97-.53-1.42-1l-.3-.31-1.26-1.26h5.72c1.15,0,2.09-.94,2.09-2.09,0,0,0-7.96.01-8.96h4.52c.1.15.82,1.16,1.75,2.46h-4.03ZM96.25,167.4s-.07.03-.2.03h-9.16c-.46,0-.97-.53-1.42-1l-.3-.31-1.19-1.26h6.61c.56,0,1.01-.24,1.22-.65.09-.17.14-.36.14-.57,0-.37-.15-.78-.45-1.2,0,0-5.09-7.16-6.14-8.64h2.81c2.55,0,4.63-2.08,4.63-4.63v-14.03c0-.08,0-.16-.01-.25,2.24,2.37,2.68,3.35,2.68,4.54v7.64c.01,1.74.03,5.38-1.97,7.39-.98.99-2.38,1.49-4.15,1.49h-1.11l7.76,10.86c.25.35.25.55.23.59M82.6,145.44c0,.24-.2.44-.45.44h-9.14v-3.59h9.59v3.15ZM82.6,141.14h-10.73v4.73h-1.81c-.24,0-.44-.19-.44-.44v-6.2c0-.24.2-.44.44-.44h12.1c.24,0,.45.2.45.44v1.91Z"/>
    <path class="cls-2" d="M213.85,166.27l-11.67-29.95c-.29-.73-3.52-4.71-5-5.19-.46-.34-1.02-.56-1.55-.56h-7.22c-1.05,0-2.18.83-2.59,1.89l-11.35,30.1-.08.25c-.34,1.1.06,1.85.27,2.25l.05.1c.32.61,1.37,1.91,2.01,2.49.73.66,1.34.93,2.11.93h5.01c1.07,0,2.23-.83,2.64-1.89,0,0,.82-2.02,1.05-2.56h12.54c.3.35,2.54,2.93,2.54,2.93.48.72,1.66,1.52,2.73,1.52h7.05c.57,0,1.06-.24,1.34-.66.18-.26.26-.56.26-.89,0-.25-.05-.5-.15-.76M186.77,162.98l-1.34,3.29c-.24.63-.98,1.17-1.58,1.17h-5.01c-.48,0-.83-.16-1.34-.63-.48-.44-1.27-1.41-1.63-1.95.02,0,.04,0,.05,0h5.97c1.05,0,2.19-.83,2.58-1.89,0,0,.81-2.14,1.02-2.71h13.06c.22.57,1.02,2.71,1.02,2.71,0,0,0,0,0,0h-12.81ZM212.79,167.27c-.09.13-.27.16-.4.16h-7.05c-.65,0-1.48-.56-1.82-1.08l-1.3-1.5h5.92c.55,0,1.03-.24,1.31-.64.31-.44.35-1.05.13-1.65l-10.85-28.76c1.07,1.12,2.21,2.48,2.38,2.94l11.68,29.95h0c.09.24.1.45,0,.59M188.37,152.64c.44-1.18,2.9-7.66,3.66-9.7.19.51.5,1.31.84,2.23l-2.9,7.47h-1.6ZM191.2,152.64c.4-1.02,1.63-4.19,2.28-5.87.92,2.46,1.94,5.15,2.21,5.87h-4.49Z"/>
  </g>
</svg>